<?xml version="1.0" standalone="no"?>
<!DOCTYPE svg PUBLIC "-//W3C//DTD SVG 20010904//EN"
 "http://www.w3.org/TR/2001/REC-SVG-20010904/DTD/svg10.dtd">
<svg version="1.0" xmlns="http://www.w3.org/2000/svg"
 width="360.000000pt" height="318.000000pt" viewBox="0 0 360.000000 318.000000"
 preserveAspectRatio="xMidYMid meet">
<metadata>
Created by potrace 1.16, written by Peter Selinger 2001-2019
</metadata>
<g transform="rotate(180, 180, 159)">
<g transform="translate(0.000000,318.000000) scale(0.100000,-0.100000)"
fill="#000000" stroke="none">
<g>
<path d="M1178 2949 c-67 -1 -134 -4 -148 -6 -14 -2 -58 -13 -98 -24 -40 -10
-101 -33 -135 -50 -34 -18 -87 -49 -118 -70 -31 -21 -82 -66 -113 -101 -35
-38 -75 -99 -102 -154 -24 -50 -51 -124 -60 -165 -11 -53 -15 -107 -11 -189 3
-94 10 -132 35 -207 18 -51 44 -116 58 -145 15 -29 44 -78 65 -110 21 -31 63
-85 94 -120 30 -34 83 -87 118 -116 34 -30 98 -78 143 -108 l81 -54 7 -102 c3
-57 17 -151 31 -211 13 -59 39 -144 58 -190 18 -45 52 -114 74 -152 23 -39 66
-100 96 -136 30 -36 86 -89 123 -117 38 -29 101 -68 141 -87 39 -19 102 -42
140 -51 37 -9 111 -16 163 -17 56 0 122 7 160 17 36 9 106 36 155 60 50 25
121 70 158 101 37 31 95 93 129 138 33 45 77 115 98 157 20 41 49 111 63 155
14 44 33 115 42 158 8 42 18 124 22 181 l6 104 31 15 c17 8 68 42 113 75 45
34 115 94 155 135 41 41 97 109 127 151 29 42 70 113 91 159 21 45 46 109 55
142 9 33 19 108 22 166 3 63 1 132 -6 172 -6 36 -25 99 -41 139 -16 40 -51
103 -76 140 -25 37 -70 89 -99 116 -29 26 -79 64 -112 84 -33 19 -89 47 -124
61 -35 14 -99 32 -141 41 -43 9 -126 16 -185 16 -59 0 -137 -5 -173 -10 -36
-6 -105 -22 -155 -36 -49 -14 -141 -50 -203 -80 l-114 -53 -86 43 c-48 24
-120 55 -160 70 -40 14 -117 35 -171 46 -71 14 -134 20 -223 19z m37 -94 c87
-3 155 -11 205 -24 41 -11 100 -28 130 -39 30 -11 81 -32 113 -47 31 -15 57
-31 57 -35 0 -4 -37 -36 -82 -73 -46 -36 -105 -87 -131 -114 l-48 -50 -82 25
c-61 18 -108 24 -182 25 -81 1 -113 -3 -170 -22 -56 -20 -81 -35 -127 -81 -40
-40 -60 -69 -68 -100 -6 -24 -11 -69 -11 -100 0 -32 9 -85 21 -120 11 -34 39
-90 61 -125 22 -35 70 -92 107 -127 37 -34 93 -80 125 -101 32 -21 99 -58 150
-82 51 -24 135 -55 187 -69 53 -13 131 -29 174 -35 42 -6 123 -11 179 -11 56
0 134 5 172 10 39 6 77 13 86 15 12 4 18 -9 28 -62 7 -37 15 -113 18 -169 l6
-102 -89 -13 c-49 -7 -156 -12 -239 -12 -104 1 -187 8 -269 22 -66 12 -172 39
-236 60 -65 22 -155 58 -201 82 -46 23 -115 63 -154 89 -38 27 -93 68 -121 92
-28 24 -80 76 -115 115 -35 39 -85 107 -111 150 -26 44 -61 121 -78 173 -23
66 -33 119 -37 184 -3 62 0 115 11 166 9 41 34 112 57 158 28 58 60 103 102
146 34 34 94 81 132 104 39 22 98 50 132 61 35 12 86 25 115 31 29 5 112 7
183 5z m1231 4 c51 1 128 -6 171 -14 44 -8 108 -27 143 -41 35 -14 87 -40 115
-58 28 -19 68 -48 89 -66 20 -18 57 -62 82 -96 25 -35 56 -90 69 -123 12 -33
28 -92 35 -133 8 -44 10 -105 6 -154 -3 -45 -15 -113 -27 -150 -12 -38 -38
-103 -59 -144 -21 -41 -54 -97 -74 -125 -19 -27 -68 -83 -108 -124 -40 -41
-108 -101 -151 -133 -43 -32 -82 -58 -86 -58 -4 0 -13 42 -20 94 -7 51 -22
131 -34 176 l-22 83 63 60 c34 34 79 86 99 116 21 31 48 85 61 120 15 43 23
87 23 132 0 48 -6 82 -21 116 -11 26 -39 67 -62 90 -23 23 -62 51 -88 62 -26
11 -80 25 -120 32 -54 8 -92 8 -151 -1 -44 -6 -107 -20 -141 -31 -34 -12 -96
-38 -138 -59 -41 -21 -107 -61 -146 -88 -39 -27 -105 -84 -146 -126 -42 -42
-99 -106 -127 -144 -28 -37 -73 -107 -100 -157 -28 -49 -60 -117 -72 -150 -12
-33 -25 -63 -29 -68 -3 -4 -32 2 -63 12 -31 11 -97 41 -147 67 -86 44 -91 48
-85 73 4 14 22 62 42 106 19 44 57 117 83 163 27 45 75 117 107 159 32 43 87
109 123 147 36 38 108 104 160 145 52 42 131 97 175 123 44 26 113 60 152 77
39 16 97 37 129 46 33 10 91 23 129 30 39 7 111 14 161 14z m-1241 -433 c61
-2 126 -10 146 -17 l36 -14 -67 -94 c-37 -52 -85 -126 -107 -165 -22 -39 -57
-111 -79 -159 l-39 -89 -56 60 c-32 33 -71 89 -89 125 -20 41 -34 86 -37 124
-3 34 -1 75 6 95 6 19 26 49 45 67 18 17 55 41 82 51 41 17 66 20 159 16z
m1241 3 c46 1 103 -6 133 -15 30 -8 69 -30 91 -50 21 -20 44 -51 51 -71 7 -21
9 -61 6 -96 -3 -37 -17 -82 -36 -122 -17 -34 -58 -91 -90 -126 l-60 -64 -12
35 c-7 19 -41 91 -76 160 -35 69 -94 168 -132 220 -38 52 -67 97 -65 99 2 2
27 9 56 17 29 7 89 13 134 13z m-258 -106 c19 -21 61 -78 94 -127 33 -50 81
-135 108 -190 26 -56 62 -140 78 -187 17 -47 39 -128 51 -180 11 -53 25 -147
31 -209 8 -80 8 -147 0 -226 -5 -62 -22 -156 -36 -210 -14 -54 -42 -135 -63
-180 -21 -45 -58 -110 -81 -144 -24 -35 -71 -91 -106 -124 -34 -34 -87 -76
-118 -95 -31 -18 -87 -45 -124 -58 -46 -17 -97 -27 -163 -30 -71 -4 -116 -1
-173 12 -43 9 -107 32 -142 50 -36 19 -93 57 -128 85 -35 27 -89 83 -119 123
-31 39 -74 109 -96 153 -22 45 -51 120 -65 165 -13 46 -28 116 -34 154 -6 39
-13 94 -16 123 -3 28 -4 52 -2 52 1 0 31 -12 67 -27 35 -14 111 -41 169 -59
l105 -32 25 -88 c15 -49 41 -118 59 -153 18 -35 56 -88 83 -118 28 -29 76 -65
107 -80 44 -22 70 -28 121 -28 51 0 77 6 122 28 35 17 78 51 112 87 30 33 68
88 85 123 16 34 39 96 51 137 13 46 23 119 27 191 3 70 1 148 -6 198 -7 45
-21 117 -32 159 -11 42 -36 115 -55 161 -19 46 -56 119 -81 163 -25 43 -70
111 -100 150 l-55 70 29 30 c15 16 49 45 75 64 25 19 72 50 105 70 l58 35 33
-38z m-368 -233 c5 0 28 -26 52 -57 24 -32 58 -81 76 -108 17 -28 49 -89 71
-135 21 -47 41 -94 43 -105 2 -15 -5 -21 -42 -28 -25 -5 -103 -10 -175 -10
-71 -1 -161 2 -199 6 l-68 9 6 31 c4 18 22 65 41 104 19 40 55 106 81 145 26
40 60 90 76 111 16 20 34 37 38 37z m-237 -954 c28 -3 102 -9 164 -13 68 -4
160 -1 233 7 67 7 123 10 126 7 3 -3 0 -25 -6 -48 -7 -24 -25 -71 -41 -105
-15 -33 -47 -82 -70 -108 -23 -26 -59 -56 -80 -66 -24 -13 -58 -20 -92 -20
-41 0 -63 6 -98 28 -24 16 -59 45 -77 66 -17 20 -43 58 -56 84 -13 26 -31 71
-40 101 -9 30 -16 59 -16 64 0 6 21 7 53 3z"/>
</g>
</g>
</g>
</svg>
